<svg xmlns="http://www.w3.org/2000/svg" width="632" height="90" viewBox="0 0 632 90" fill="none">
<path id="glyph-1-n" transform="translate(0 0)" d="M 0 90 L 0 60 A 60 60 0 0 1 120 60 L 120 90 L 104 90 L 104 60 A 44 44 0 0 0 16 60 L 16 90 Z" fill="#000000"/>
<path id="glyph-2-u" transform="translate(144 0)" d="M 0 0 L 0 30 A 60 60 0 0 0 120 30 L 120 0 L 104 0 L 104 30 A 44 44 0 0 1 16 30 L 16 0 Z" fill="#000000"/>
<rect id="glyph-3-l" x="288" y="0" width="16" height="90" rx="4" fill="#000000"/>
<path id="glyph-4-n" transform="translate(328 0)" d="M 0 90 L 0 60 A 60 60 0 0 1 120 60 L 120 90 L 104 90 L 104 60 A 44 44 0 0 0 16 60 L 16 90 Z" fill="#000000"/>
<path id="glyph-5-u" transform="translate(472 0)" d="M 0 0 L 0 30 A 60 60 0 0 0 120 30 L 120 0 L 104 0 L 104 30 A 44 44 0 0 1 16 30 L 16 0 Z" fill="#000000"/>
<rect id="glyph-6-l" x="616" y="0" width="16" height="90" rx="4" fill="#000000"/>
</svg>